# xmcd
#
# Track frame offsets: 
#        150
#        12908
#        27923
#        42525
#        62019
#        86554
#        101040
#        123181
#        138540
#        154314
#        173517
#        184712
#        198991
#        216908
#
# Disc length: 3129 seconds
#
# Revision: 2
# Processed by: cddbd v1.5.2PL0 Copyright (c) Steve Scherf et al.
# Submitted via: ExactAudioCopy v1.0b3
#
DISCID=bf0c370e
DTITLE=John Campbelljohn - Under The Blue Cover
DYEAR=2000
DGENRE=Blues
TTITLE0=Hey Hey Baby
TTITLE1=Rock This House
TTITLE2=30 Dirty Women
TTITLE3=Key To The Highway
TTITLE4=Kokomo Blues
TTITLE5=Seventh Son
TTITLE6=How Blue Can You Get
TTITLE7=You Don't Have To Go
TTITLE8=You Upset Me Baby
TTITLE9=Walkin' By Myself
TTITLE10=You Gotta Move
TTITLE11=Ask Me No Questions
TTITLE12=Baby Please Don't Go
TTITLE13=Watch Yourself
EXTD=
EXTT0=
EXTT1=
EXTT2=
EXTT3=
EXTT4=
EXTT5=
EXTT6=
EXTT7=
EXTT8=
EXTT9=
EXTT10=
EXTT11=
EXTT12=
EXTT13=
PLAYORDER=
